{"title":"The.Ides.Of.March.2011.DVDSCR.XviD-RLF","uid":6862654,"size":731490120,"categoryP":"video","categoryS":"movies","magnet":"?xt=urn:btih:8b4919a1911de37096f9dbbfba62c27cb2a97acd&amp;dn=The.Ides.Of.March.2011.DVDSCR.XviD-RLF&amp;tr=udp%3A%2F%2Ftracker.openbittorrent.com%3A80&amp;tr=udp%3A%2F%2Fopen.demonii.com%3A1337&amp;tr=udp%3A%2F%2Ftracker.coppersurfer.tk%3A6969&amp;tr=udp%3A%2F%2Fexodus.desync.com%3A6969","seeders":1,"leechers":0,"uploader":"rlf-rls","files":-1,"time":1322957091,"description":" The.Ides.Of.March.2011.DVDSCR.XviD-RLF \n ~~~~~~~~~~~~~~~~~~~~~~~~~~~~~~~~~~~~~~ \n\n\n General:\n\n \n Complete name: rlf-march-scr.avi\n\n Format: AVI\n\n Format/Info: Audio Video Interleave\n\n File size: 696 MiB\n\n Duration: 1h 41mn\n\n Overall bit rate: 962 Kbps\n\n Language: English\n\n Subs: N/A \n\n Encoder: Ralf\n\n \n Video:\n\n \n Format: MPEG-4 Visual\n\n Format profile: Advanced Simple@L5\n\n Format settings, BVOP: 2\n\n Format settings, QPel: No\n\n Format settings, GMC: No warppoints\n\n Format settings, Matrix: H.263\n\n Muxing mode: Packed bitstream\n\n Codec ID: XVID\n\n Duration: 1h 41mn\n\n Bit rate: 821 Kbps\n\n Width: 688 pixels\n\n Height: 288 pixels\n\n Display aspect ratio: 2.35:1\n\n Frame rate: 23.976 fps\n\n Color space: YUV\n\n Chroma subsampling: 4:2:0\n\n Bit depth: 8 bits\n\n Scan type: Progressive\n\n Bits/(Pixel*Frame): 0.173\n\n Stream size: 594 MiB (85%)\n\n \n Audio:\n\n \n Format: MPEG Audio\n\n Format profile: Layer 3\n\n Codec ID/Hint: MP3\n\n Duration: 1h 41mn\n\n Bit rate mode: Constant\n\n Bit rate: 128 Kbps\n\n Channel(s): 2 channels\n\n Sampling rate: 44.1 KHz\n\n Stream size: 92.6 MiB (13%)\n\n Alignment: Split accross interleaves\n\n \n Info: \n\n\n An idealistic staffer for a newbie presidential candidate gets a \n crash course on dirty politics during his stint on the \n campaign trail.\n                                          \n &lt;a href=&quot; http://www.imdb.com/title/tt1124035/&quot; rel=&quot;nofollow&quot; target=&quot;_NEW&quot;&gt; http://www.imdb.com/title/tt1124035/&lt;/a&gt;\n &lt;a href=&quot; http://www.filmweb.pl/film/Idy+marcowe-2011-530029&quot; rel=&quot;nofollow&quot; target=&quot;_NEW&quot;&gt; http://www.filmweb.pl/film/Idy+marcowe-2011-530029&lt;/a&gt;\n\n\n Screens:\n\n &lt;a href=&quot; http://www.postimg.com/54000/photo-53750.jpg&quot; rel=&quot;nofollow&quot; target=&quot;_NEW&quot;&gt; http://www.postimg.com/54000/photo-53750.jpg&lt;/a&gt;\n &lt;a href=&quot; http://www.postimg.com/54000/photo-53751.jpg&quot; rel=&quot;nofollow&quot; target=&quot;_NEW&quot;&gt; http://www.postimg.com/54000/photo-53751.jpg&lt;/a&gt;\n &lt;a href=&quot; http://www.postimg.com/54000/photo-53752.jpg&quot; rel=&quot;nofollow&quot; target=&quot;_NEW&quot;&gt; http://www.postimg.com/54000/photo-53752.jpg&lt;/a&gt;\n &lt;a href=&quot; http://www.postimg.com/54000/photo-53753.jpg&quot; rel=&quot;nofollow&quot; target=&quot;_NEW&quot;&gt; http://www.postimg.com/54000/photo-53753.jpg&lt;/a&gt;\n ","torrent":{"xt":"urn:btih:8b4919a1911de37096f9dbbfba62c27cb2a97acd","amp;dn":"The.Ides.Of.March.2011.DVDSCR.XviD-RLF","amp;tr":["udp%3A%2F%2Ftracker.openbittorrent.com%3A80","udp%3A%2F%2Fopen.demonii.com%3A1337","udp%3A%2F%2Ftracker.coppersurfer.tk%3A6969","udp%3A%2F%2Fexodus.desync.com%3A6969"],"infoHash":"8b4919a1911de37096f9dbbfba62c27cb2a97acd","infoHashBuffer":{"type":"Buffer","data":[139,73,25,161,145,29,227,112,150,249,219,191,186,98,194,124,178,169,122,205]},"announce":[],"urlList":[]}}